<svg width="42" height="43" viewBox="0 0 42 43" fill="none" xmlns="http://www.w3.org/2000/svg">
<rect y="0.316406" width="42" height="42" rx="5" fill="#001D2F" fill-opacity="0.05"/>
<path fill-rule="evenodd" clip-rule="evenodd" d="M25.7319 22.4299C25.796 22.3243 25.9453 22.2857 26.0663 22.3426C26.1861 22.402 26.2294 22.5354 26.1634 22.6403V22.6403L24.9237 24.6467C27.3571 25.7633 29.0007 27.8801 29 30.3147V30.3147L13 30.3164C12.9986 27.881 14.6451 25.7598 17.0819 24.6461V24.6461L15.8417 22.6409C15.7747 22.5362 15.819 22.4026 15.9395 22.3449C16.0578 22.2868 16.2078 22.3254 16.2729 22.432V22.432L17.5267 24.4543C18.576 24.041 19.7547 23.8087 20.999 23.8098C22.2467 23.8087 23.426 24.0417 24.4796 24.4573V24.4573L25.7319 22.4299ZM17.3607 26.5581C16.9909 26.5579 16.6913 26.8264 16.6913 27.1531C16.6913 27.4812 16.9919 27.7467 17.36 27.7474C17.7317 27.7472 18.0325 27.4808 18.0322 27.1531C18.0317 26.8264 17.7317 26.5579 17.3607 26.5581ZM24.6458 26.556C24.2754 26.5573 23.9763 26.8258 23.9748 27.1518C23.9748 27.4808 24.2758 27.7465 24.6456 27.7461C25.0151 27.7463 25.3159 27.4804 25.3154 27.152C25.3157 26.8258 25.0139 26.557 24.6458 26.556ZM18.0806 11.9164L18.08 13.4274L19.4668 13.4275V14.9446L18.08 14.9444L18.0806 17.6861C18.0806 18.0438 18.1316 18.1667 18.3209 18.1995L18.3893 18.2074L18.4686 18.2097C18.5857 18.2097 18.7317 18.1863 18.8273 18.1561L18.8883 18.1324L19.4668 17.8439V19.4342L19.2303 19.5401C18.9617 19.6603 18.6794 19.7164 18.3641 19.7164C17.3466 19.7164 16.6817 19.0316 16.6207 17.9206L16.6161 17.7508L16.616 14.9444L15.6 14.9446V13.4275L16.616 13.4274L16.6161 11.9164H18.0806ZM22.0776 13.4273L23.544 17.0714L25.0121 13.4273H26.6277L24.0794 19.6621H23.02L20.4712 13.4273H22.0776Z" fill="#001D2F"/>
</svg>
