<svg width="42" height="43" viewBox="0 0 42 43" fill="none" xmlns="http://www.w3.org/2000/svg">
<rect y="0.316406" width="42" height="42" rx="5" fill="#001D2F" fill-opacity="0.05"/>
<path fill-rule="evenodd" clip-rule="evenodd" d="M20.4482 12.3124L20.6918 12.3156L23.6667 12.3156C24.219 12.3156 24.6667 12.7633 24.6667 13.3156C24.6667 13.8678 24.219 14.3156 23.6667 14.3156L20.559 14.3135L21.2632 15.6333L21.753 16.5614L23.3111 16.562C23.2682 16.562 23.3008 16.5397 23.4053 16.4909L23.4766 16.4584L24.2079 16.1424L24.5444 16.0093C24.9866 15.8445 25.3473 15.7567 25.6995 15.7567C27.762 15.7567 29.2362 17.2986 29.4532 19.4951C29.7448 21.2526 29.9475 23.6143 29.9912 25.0934L30 25.6345C30 25.973 29.9983 26.1837 29.9913 26.3807L29.9801 26.6179C29.8831 28.288 29.3227 29.4578 27.8795 30.0427C26.4875 30.5734 25.0589 29.7918 23.7874 28.2667C23.72 28.1858 23.6482 28.0977 23.5658 27.9948L22.335 26.4245H19.693L19.4373 26.7483L18.644 27.7339L18.1922 28.2765C16.8576 29.8364 15.7474 30.477 14.1969 30.0765L14.0688 30.034C12.4528 29.3739 12.0163 28.1776 12.0008 26.0823L12 25.7393C12 24.671 12.1987 22.2338 12.452 20.2911L12.5383 19.6643C12.7653 17.388 14.256 15.7567 16.3112 15.7567C16.7151 15.7567 17.1276 15.873 17.6462 16.0853C17.7633 16.1332 17.8836 16.1853 18.0209 16.2469L18.6498 16.5295C18.6988 16.5501 18.7204 16.562 18.6293 16.562L19.488 16.5614L18.8831 15.4188C18.6363 14.9592 18.4551 14.6285 18.3404 14.4279C17.964 13.7704 18.1719 13.0469 18.7725 12.6688C19.0603 12.4876 19.3925 12.3999 19.7939 12.3516C20.0165 12.3248 20.2395 12.3136 20.4482 12.3124ZM25.6995 17.7567C25.6195 17.7567 25.3888 17.822 25.0643 17.9529L24.9733 17.9901L24.1121 18.3621C23.7802 18.4975 23.5705 18.562 23.3111 18.562H18.6293C18.3667 18.562 18.1647 18.4967 17.8347 18.3563L16.9854 17.9767L16.7679 17.8884C16.5376 17.8003 16.374 17.7567 16.3112 17.7567C15.3743 17.7567 14.6606 18.5377 14.523 19.9073C14.2646 21.6869 14.0456 24.1356 14.0063 25.3845L14 25.7368L14.0008 26.0725C14.0109 27.4344 14.1891 27.9227 14.8252 28.1826L14.761 28.1534L14.802 28.1629C15.2871 28.2475 15.7153 28.0237 16.3749 27.3118L16.5199 27.1517L16.6725 26.9763C16.7594 26.8748 16.862 26.7521 16.9782 26.6111L17.6386 25.7959L18.4217 24.8079C18.6112 24.5661 18.9015 24.4248 19.2087 24.4248H22.7778C23.1555 24.5009 23.231 24.5161 23.306 24.5667L23.418 24.6517C23.457 24.6816 23.4661 24.69 23.5025 24.7237L23.571 24.7917L23.6993 24.9349L23.9121 25.1935L24.9498 26.521C25.1074 26.7214 25.2237 26.8661 25.3237 26.9861L25.4695 27.1557C26.1933 27.9716 26.8309 28.3021 27.1475 28.1816C27.6997 27.9577 27.9264 27.4846 27.9835 26.5019C27.9893 26.4012 27.9932 26.3075 27.9957 26.199L28 25.6345C28 24.5032 27.8358 22.2769 27.5742 20.43L27.4716 19.758C27.3425 18.4633 26.6669 17.7567 25.6995 17.7567ZM17.0889 19.5165C17.6017 19.5165 18.0244 19.9025 18.0822 20.3998L18.0889 20.5165L18.088 20.8494L18.3333 20.8498C18.8856 20.8498 19.3333 21.2975 19.3333 21.8498C19.3333 22.3626 18.9473 22.7853 18.45 22.8431L18.3333 22.8498L18.088 22.8494L18.0889 23.0942C18.0889 23.6465 17.6412 24.0942 17.0889 24.0942C16.5761 24.0942 16.1534 23.7082 16.0956 23.2109L16.0889 23.0942L16.088 22.8494L15.7556 22.8498C15.2033 22.8498 14.7556 22.4021 14.7556 21.8498C14.7556 21.337 15.1416 20.9143 15.6389 20.8565L15.7556 20.8498L16.088 20.8494L16.0889 20.5165C16.0889 19.9642 16.5366 19.5165 17.0889 19.5165ZM23.6667 22.2053C24.1576 22.2053 24.5556 22.6033 24.5556 23.0942C24.5556 23.5852 24.1576 23.9831 23.6667 23.9831C23.1757 23.9831 22.7778 23.5852 22.7778 23.0942C22.7778 22.6033 23.1757 22.2053 23.6667 22.2053ZM25.8889 22.2053C26.3798 22.2053 26.7778 22.6033 26.7778 23.0942C26.7778 23.5852 26.3798 23.9831 25.8889 23.9831C25.398 23.9831 25 23.5852 25 23.0942C25 22.6033 25.398 22.2053 25.8889 22.2053ZM23.6667 19.9831C24.1576 19.9831 24.5556 20.3811 24.5556 20.872C24.5556 21.3629 24.1576 21.7609 23.6667 21.7609C23.1757 21.7609 22.7778 21.3629 22.7778 20.872C22.7778 20.3811 23.1757 19.9831 23.6667 19.9831ZM25.8889 19.9831C26.3798 19.9831 26.7778 20.3811 26.7778 20.872C26.7778 21.3629 26.3798 21.7609 25.8889 21.7609C25.398 21.7609 25 21.3629 25 20.872C25 20.3811 25.398 19.9831 25.8889 19.9831Z" fill="#001D2F"/>
</svg>
