<svg width="42" height="43" viewBox="0 0 42 43" fill="none" xmlns="http://www.w3.org/2000/svg">
<rect y="0.316406" width="42" height="42" rx="5" fill="#001D2F" fill-opacity="0.05"/>
<path fill-rule="evenodd" clip-rule="evenodd" d="M21 12.3164C24.6706 12.3164 27.8279 14.5137 29.2284 17.6648C29.2454 17.6981 29.2607 17.733 29.2739 17.7688C29.7412 18.8575 30 20.0567 30 21.3164C30 26.287 25.9706 30.3164 21 30.3164C20.6803 30.3164 20.3644 30.2997 20.0533 30.2672C20.0202 30.2657 19.9873 30.2624 19.9544 30.2574C19.9514 30.256 19.9484 30.2556 19.9454 30.2553C19.9378 30.2548 19.9302 30.2535 19.9226 30.2521C15.4598 29.72 12 25.9223 12 21.3164C12 19.3418 12.6359 17.5158 13.7141 16.0318C13.7412 15.9876 13.7722 15.9459 13.8065 15.9065C15.4488 13.7263 18.0598 12.3164 21 12.3164ZM27.647 19.1156L24.5775 19.1149C24.9722 19.755 25.2 20.5091 25.2 21.3164C25.2 22.1237 24.9722 22.8778 24.5775 23.5179L21.8371 28.2669C25.3084 27.8532 28 24.8991 28 21.3164C28 20.5476 27.876 19.8077 27.647 19.1156ZM14.5612 18.5655C14.2 19.41 14 20.3398 14 21.3164C14 24.6963 16.3954 27.5167 19.5812 28.1725L21.115 25.5134L21 25.5164C19.3809 25.5164 17.9758 24.6003 17.2748 23.2581L14.5612 18.5655ZM21 19.1164C19.785 19.1164 18.8 20.1014 18.8 21.3164C18.8 21.6791 18.8878 22.0213 19.0432 22.3229L19.0977 22.4159L19.1161 22.4532C19.5015 23.0905 20.201 23.5164 21 23.5164C21.7782 23.5164 22.4621 23.1123 22.8532 22.5025L22.9018 22.4167L22.9233 22.3853C23.0996 22.0689 23.2 21.7044 23.2 21.3164C23.2 20.1014 22.215 19.1164 21 19.1164ZM21 14.3164C18.9211 14.3164 17.0538 15.2227 15.7717 16.6617L17.306 19.3162C18.0169 18.006 19.4046 17.1164 21 17.1164L20.971 17.1174L21 17.1164L26.5996 17.1152C25.3225 15.4157 23.2896 14.3164 21 14.3164Z" fill="#001D2F"/>
</svg>
