<svg width="42" height="43" viewBox="0 0 42 43" fill="none" xmlns="http://www.w3.org/2000/svg">
<rect y="0.316406" width="42" height="42" rx="5" fill="#001D2F" fill-opacity="0.05"/>
<path fill-rule="evenodd" clip-rule="evenodd" d="M29.55 18.7064C28.74 16.3664 26.94 14.8364 26.94 13.7564C26.76 14.1164 26.58 14.3864 26.58 14.6564C26.49 14.5664 26.4 14.4764 26.4 14.4764C24.42 12.8564 24.42 12.3164 24.42 12.3164C23.97 12.9464 23.5783 13.6977 23.2574 14.5977C23.0623 15.1864 23.0509 15.8271 23.1284 16.5341C23.1673 16.888 23.4091 17.4672 23.854 18.2715C24.246 18.8336 24.981 19.705 25.2187 20.5653C25.4563 21.4256 25.4151 22.9396 24.9313 23.7869C24.203 25.0623 22.9823 25.8164 21.45 25.8164C20.37 25.8164 19.02 25.1864 18.48 24.2864C19.38 24.5564 20.28 24.4664 20.91 24.1064C21.54 23.7464 21.99 23.4764 22.26 23.5664C22.62 23.6564 22.8 23.3864 22.62 23.0264C22.44 22.7564 21.81 22.3064 21 22.3964C20.37 22.4864 19.74 22.9364 18.84 22.4864C18.75 22.4864 17.67 21.8564 17.67 20.8664C17.67 20.6864 17.8761 20.2968 18.0561 20.2068C18.1461 20.2068 18.84 20.7138 18.84 20.7138C19.2 20.4438 19.0413 19.6703 18.9513 19.3103C19.3113 19.0403 20.2957 18.6719 20.4204 18.5819C20.5452 18.4919 20.6469 18.4011 20.8127 18.2105C20.91 18.0863 20.9693 17.9649 21 17.8665C21.0307 17.7681 21.1423 17.5092 20.8538 17.3897C20.5544 17.2852 19.9055 17.229 19.5635 17.1585C19.2215 17.0881 19.0963 17.0678 18.9125 16.9155C18.7287 16.7632 18.749 16.4951 18.7691 16.372C18.9693 15.1439 20.1193 14.7253 20.1193 14.7253C20.1193 14.7253 18.6481 14.334 17.5681 15.504C17.433 15.504 17.1017 15.3516 16.4883 15.2844C15.875 15.2172 15.4368 15.3504 15.4368 15.3504C15.1725 14.9459 14.8844 14.5977 14.5916 13.4978C14.5016 13.4978 13.4572 14.3682 13.3672 16.6182C12.3772 17.7882 12 19.6964 12 21.3164C12 26.2664 16.0847 30.3257 21.1398 30.3257C23.2574 30.3257 25.9068 29.2804 27.5549 27.4867C29.029 25.8824 30 23.6535 30 21.3164C30 20.1464 29.82 19.3364 29.55 18.7064Z" fill="#001D2F"/>
</svg>
