<svg width="42" height="43" viewBox="0 0 42 43" fill="none" xmlns="http://www.w3.org/2000/svg">
<rect y="0.316406" width="42" height="42" rx="5" fill="#001D2F" fill-opacity="0.05"/>
<path fill-rule="evenodd" clip-rule="evenodd" d="M17.0906 18.2852C18.2437 18.2852 18.6938 19.1008 18.6938 19.1008C18.6938 19.1008 17.8219 19.5508 17.8219 20.6477C17.8219 21.8852 18.8906 22.2789 18.8906 22.2789C18.8906 22.2789 18.1312 24.4445 17.0906 24.4445C16.6125 24.4445 16.2469 24.1352 15.7406 24.1352C15.2344 24.1352 14.7281 24.4727 14.3906 24.4727C13.4625 24.4727 12.2531 22.4195 12.2531 20.7602C12.2531 19.1289 13.2656 18.2852 14.2219 18.2852C14.8406 18.2852 15.3188 18.6508 15.6281 18.6508C15.9094 18.6508 16.4156 18.2852 17.0906 18.2852ZM22.2937 16.7945V18.6508H23.5031V19.7758H22.2937V22.5602C22.2937 22.9539 22.5187 23.1227 22.8281 23.1227C23.1375 23.1227 23.5313 22.9539 23.6156 22.9258L23.9531 24.0789C23.7562 24.1633 23.5031 24.2477 23.2219 24.332C22.9406 24.4164 22.6312 24.4727 22.3219 24.4727C21.3375 24.4727 20.8312 23.9383 20.8312 23.0664V19.7758H20.0719V18.6508H20.8312V16.7945H22.2937ZM25.6125 18.6508L27.0469 23.1789L28.5094 18.6508H29.8875L27.7781 24.3602H26.2031L24.0937 18.6508H25.6125ZM17.2312 16.3164C17.2312 16.3164 17.3437 16.9914 16.7812 17.6102C16.2518 18.2455 15.6477 18.1832 15.5784 18.1736L15.5719 18.1727L15.5675 18.1452C15.5524 18.0287 15.5231 17.5558 15.9375 17.0195C16.4719 16.3164 17.2312 16.3164 17.2312 16.3164Z" fill="#001D2F"/>
</svg>
